<?xml version="1.0" encoding="utf-8"?>
<!-- Generator: Adobe Illustrator 18.0.0, SVG Export Plug-In . SVG Version: 6.00 Build 0)  -->
<!DOCTYPE svg PUBLIC "-//W3C//DTD SVG 1.1//EN" "http://www.w3.org/Graphics/SVG/1.1/DTD/svg11.dtd">
<svg version="1.1" id="Layer_1" xmlns="http://www.w3.org/2000/svg" xmlns:xlink="http://www.w3.org/1999/xlink" x="0px" y="0px"
	 viewBox="0 0 512 512" enable-background="new 0 0 512 512" xml:space="preserve">
<g>
	<polygon fill="#59C4CD" points="301.3,308.4 308,313.6 301.3,322.2 290.2,313.6 	"/>
	<polygon fill="#3797DB" points="301.3,308.4 290.2,313.6 301.3,299.3 	"/>
	<polygon fill="#47ADD8" points="301.3,308.4 308,313.6 318.6,323.6 315.9,305.2 301.3,299.3 	"/>
	<polygon fill="#4AB5C4" points="308,313.6 301.3,322.2 301.3,337.2 318.6,323.6 	"/>
	<polygon fill="#46B6A9" points="301.3,322.2 290.2,313.6 272.7,297.1 277.1,327.6 301.3,337.2 	"/>
	<polygon fill="#4EBCB3" points="290.2,313.6 301.3,299.3 301.3,274.6 272.7,297.1 	"/>
	<polygon fill="#3797DB" points="301.3,299.3 315.9,305.2 329.3,280.2 301.3,274.6 	"/>
	<polygon fill="#59C4CD" points="315.9,305.2 318.6,323.6 348.5,340.9 349.4,305.1 329.3,280.2 	"/>
	<polygon fill="#46B6A9" points="318.6,323.6 301.3,337.2 322.1,371 348.5,340.9 	"/>
	<polygon fill="#4AB5C4" points="301.3,337.2 277.1,327.6 235.2,351.8 277.9,377.7 322.1,371 	"/>
	<polygon fill="#4EBCB3" points="277.1,327.6 272.7,297.1 217.2,298.8 235.2,351.8 	"/>
	<polygon fill="#47ADD8" points="272.7,297.1 301.3,274.6 301.3,206.9 239.9,240.5 217.2,298.8 	"/>
	<polygon fill="#46B6A9" points="301.3,274.6 329.3,280.2 397.6,236.8 351,210.3 301.3,206.9 	"/>
	<polygon fill="#59C4CD" points="329.3,280.2 349.4,305.1 430.3,284.1 397.6,236.8 	"/>
	<polygon fill="#47ADD8" points="349.4,305.1 348.5,340.9 420.7,408.9 439.9,345.2 430.3,284.1 	"/>
	<polygon fill="#62D9A7" points="348.5,340.9 322.1,371 372.5,461.5 420.7,408.9 	"/>
	<polygon fill="#4EBCB3" points="322.1,371 277.9,377.7 219,484.4 301.3,490 372.5,461.5 	"/>
	<polygon fill="#4DBFA2" points="277.9,377.7 235.2,351.8 142.1,440.6 219,484.4 	"/>
	<polygon fill="#47ADD8" points="235.2,351.8 217.2,298.8 72.1,261.3 88,362.3 142.1,440.6 	"/>
	<polygon fill="#62D9A7" points="217.2,298.8 239.9,240.5 103.8,156.1 72.1,261.3 	"/>
	<polygon fill="#59C4CD" points="239.9,240.5 301.3,206.9 301.3,22 183.5,69.1 103.8,156.1 	"/>
	<line fill="none" stroke="#000000" stroke-width="2" x1="290.2" y1="313.6" x2="301.3" y2="308.4"/>
	<line fill="none" stroke="#000000" stroke-width="2" x1="301.3" y1="299.3" x2="301.3" y2="308.4"/>
	<line fill="none" stroke="#000000" stroke-width="2" x1="301.3" y1="299.3" x2="301.3" y2="308.4"/>
	<line fill="none" stroke="#000000" stroke-width="2" x1="318.6" y1="323.6" x2="308" y2="313.6"/>
	<line fill="none" stroke="#000000" stroke-width="2" x1="301.3" y1="337.2" x2="301.3" y2="322.2"/>
	<line fill="none" stroke="#000000" stroke-width="2" x1="272.7" y1="297.1" x2="290.2" y2="313.6"/>
	<line fill="none" stroke="#000000" stroke-width="2" x1="301.3" y1="274.6" x2="301.3" y2="299.3"/>
	<line fill="none" stroke="#000000" stroke-width="2" x1="329.3" y1="280.2" x2="315.9" y2="305.2"/>
	<line fill="none" stroke="#000000" stroke-width="2" x1="348.5" y1="340.9" x2="318.6" y2="323.6"/>
	<line fill="none" stroke="#000000" stroke-width="2" x1="322.1" y1="371" x2="301.3" y2="337.2"/>
	<line fill="none" stroke="#000000" stroke-width="2" x1="235.2" y1="351.8" x2="277.1" y2="327.6"/>
	<line fill="none" stroke="#000000" stroke-width="2" x1="217.2" y1="298.8" x2="272.7" y2="297.1"/>
	<line fill="none" stroke="#000000" stroke-width="2" x1="301.3" y1="206.9" x2="301.3" y2="274.6"/>
	<line fill="none" stroke="#000000" stroke-width="2" x1="397.6" y1="236.8" x2="329.3" y2="280.2"/>
	<line fill="none" stroke="#000000" stroke-width="2" x1="430.3" y1="284.1" x2="349.4" y2="305.1"/>
	<line fill="none" stroke="#000000" stroke-width="2" x1="420.7" y1="408.9" x2="348.5" y2="340.9"/>
	<line fill="none" stroke="#000000" stroke-width="2" x1="372.5" y1="461.5" x2="322.1" y2="371"/>
	<line fill="none" stroke="#000000" stroke-width="2" x1="219" y1="484.4" x2="277.9" y2="377.7"/>
	<line fill="none" stroke="#000000" stroke-width="2" x1="142.1" y1="440.6" x2="235.2" y2="351.8"/>
	<line fill="none" stroke="#000000" stroke-width="2" x1="72.1" y1="261.3" x2="217.2" y2="298.8"/>
	<line fill="none" stroke="#000000" stroke-width="2" x1="103.8" y1="156.1" x2="239.9" y2="240.5"/>
	<polyline fill="none" stroke="#000000" stroke-width="2" points="301.3,308.4 308,313.6 301.3,322.2 290.2,313.6 301.3,299.3 
		301.3,299.3 315.9,305.2 318.6,323.6 301.3,337.2 277.1,327.6 272.7,297.1 301.3,274.6 301.3,274.6 329.3,280.2 349.4,305.1 
		348.5,340.9 322.1,371 277.9,377.7 235.2,351.8 217.2,298.8 239.9,240.5 301.3,206.9 301.3,206.9 351,210.3 397.6,236.8 
		430.3,284.1 439.9,345.2 420.7,408.9 372.5,461.5 301.3,490 219,484.4 142.1,440.6 88,362.3 72.1,261.3 103.8,156.1 183.5,69.1 
		301.3,22 301.3,206.9 	"/>
</g>
</svg>
