<?xml version="1.0" encoding="utf-8"?>
<!-- Generator: Adobe Illustrator 18.0.0, SVG Export Plug-In . SVG Version: 6.00 Build 0)  -->
<!DOCTYPE svg PUBLIC "-//W3C//DTD SVG 1.1//EN" "http://www.w3.org/Graphics/SVG/1.1/DTD/svg11.dtd">
<svg version="1.1" id="Layer_1" xmlns="http://www.w3.org/2000/svg" xmlns:xlink="http://www.w3.org/1999/xlink" x="0px" y="0px"
	 viewBox="0 0 64 64" enable-background="new 0 0 64 64" xml:space="preserve">
<g>
	<polygon fill="#59C4CD" points="37.1,34.3 43.4,39.2 37.1,47.2 26.8,39.2 	"/>
	<polygon fill="#3797DB" points="37.1,34.3 26.8,39.2 37.1,25.8 	"/>
	<polygon fill="#47ADD8" points="37.1,34.3 43.4,39.2 54.5,41.6 51.7,32.5 45,26.9 37.1,25.8 	"/>
	<polygon fill="#4AB5C4" points="43.4,39.2 37.1,47.2 43.1,59.4 51.7,51.7 54.5,41.6 	"/>
	<polygon fill="#46B6A9" points="37.1,47.2 26.8,39.2 9.7,43.1 18,55.7 30.6,61.3 43.1,59.4 	"/>
	<polygon fill="#4EBCB3" points="26.8,39.2 37.1,25.8 37.1,2.7 19.1,11.2 9.5,26.5 9.7,43.1 	"/>
	<line fill="none" stroke="#000000" stroke-width="2" x1="26.8" y1="39.2" x2="37.1" y2="34.3"/>
	<line fill="none" stroke="#000000" stroke-width="2" x1="37.1" y1="25.8" x2="37.1" y2="34.3"/>
	<line fill="none" stroke="#000000" stroke-width="2" x1="37.1" y1="25.8" x2="37.1" y2="34.3"/>
	<line fill="none" stroke="#000000" stroke-width="2" x1="54.5" y1="41.6" x2="43.4" y2="39.2"/>
	<line fill="none" stroke="#000000" stroke-width="2" x1="43.1" y1="59.4" x2="37.1" y2="47.2"/>
	<line fill="none" stroke="#000000" stroke-width="2" x1="9.7" y1="43.1" x2="26.8" y2="39.2"/>
	<polyline fill="none" stroke="#000000" stroke-width="2" points="37.1,34.3 43.4,39.2 37.1,47.2 26.8,39.2 37.1,25.8 37.1,25.8 
		45,26.9 51.7,32.5 54.5,41.6 51.7,51.7 43.1,59.4 30.6,61.3 18,55.7 9.7,43.1 9.5,26.5 19.1,11.2 37.1,2.7 37.1,25.8 	"/>
</g>
</svg>
